{
	"asset":{
		"generator":"Khronos glTF Blender I/O v3.5.30",
		"version":"2.0"
	},
	"extensionsUsed":[
		"KHR_materials_emissive_strength",
		"KHR_materials_specular",
		"KHR_materials_ior"
	],
	"scene":0,
	"scenes":[
		{
			"name":"Scene",
			"nodes":[
				0
			]
		}
	],
	"nodes":[
		{
			"mesh":0,
			"name":"Cube.016",
			"scale":[
				3.200866460800171,
				2.788219690322876,
				1.8547072410583496
			],
			"translation":[
				-3.4862303733825684,
				0.24823886156082153,
				-3.718200206756592
			]
		}
	],
	"materials":[
		{
			"doubleSided":true,
			"emissiveFactor":[
				1,
				1,
				1
			],
			"emissiveTexture":{
				"index":0,
				"texCoord":1
			},
			"extensions":{
				"KHR_materials_emissive_strength":{
					"emissiveStrength":2
				}
			},
			"name":"Material",
			"pbrMetallicRoughness":{
				"baseColorTexture":{
					"index":1,
					"texCoord":1
				},
				"metallicFactor":0,
				"roughnessFactor":0.5
			}
		},
		{
			"doubleSided":true,
			"extensions":{
				"KHR_materials_specular":{
					"specularColorFactor":[
						1.2395732470602114,
						1.2395732470602114,
						1.2395732470602114
					]
				},
				"KHR_materials_ior":{
					"ior":1.4500000476837158
				}
			},
			"name":"Brown_Aluminunm",
			"pbrMetallicRoughness":{
				"baseColorFactor":[
					0.04350218176841736,
					0.029548874124884605,
					0.018259122967720032,
					1
				],
				"metallicFactor":0,
				"roughnessFactor":0.37727272510528564
			}
		},
		{
			"doubleSided":true,
			"name":"Brick ",
			"pbrMetallicRoughness":{
				"baseColorTexture":{
					"index":2,
					"texCoord":1
				},
				"metallicFactor":0
			}
		},
		{
			"doubleSided":true,
			"name":"Material.002",
			"pbrMetallicRoughness":{
				"baseColorFactor":[
					0.800000011920929,
					0.800000011920929,
					0.800000011920929,
					1
				],
				"metallicFactor":0,
				"roughnessFactor":0.5
			}
		},
		{
			"doubleSided":true,
			"extensions":{
				"KHR_materials_specular":{
					"specularColorFactor":[
						1.5419968149054148,
						1.5419968149054148,
						1.5419968149054148
					]
				},
				"KHR_materials_ior":{
					"ior":1.4500000476837158
				}
			},
			"name":"Glass",
			"pbrMetallicRoughness":{
				"baseColorTexture":{
					"index":3,
					"texCoord":1
				},
				"metallicFactor":0,
				"roughnessFactor":0.12694299221038818
			}
		}
	],
	"meshes":[
		{
			"name":"Cube.020",
			"primitives":[
				{
					"attributes":{
						"POSITION":0,
						"TEXCOORD_0":1,
						"TEXCOORD_1":2,
						"NORMAL":3
					},
					"indices":4,
					"material":0
				},
				{
					"attributes":{
						"POSITION":5,
						"TEXCOORD_0":6,
						"TEXCOORD_1":7,
						"NORMAL":8
					},
					"indices":9,
					"material":1
				},
				{
					"attributes":{
						"POSITION":10,
						"TEXCOORD_0":11,
						"TEXCOORD_1":12,
						"NORMAL":13
					},
					"indices":14,
					"material":2
				},
				{
					"attributes":{
						"POSITION":15,
						"TEXCOORD_0":16,
						"TEXCOORD_1":17,
						"NORMAL":18
					},
					"indices":19,
					"material":3
				},
				{
					"attributes":{
						"POSITION":20,
						"TEXCOORD_0":21,
						"TEXCOORD_1":22,
						"NORMAL":23
					},
					"indices":24,
					"material":4
				}
			]
		}
	],
	"textures":[
		{
			"sampler":0,
			"source":0
		},
		{
			"sampler":0,
			"source":0
		},
		{
			"sampler":0,
			"source":0
		},
		{
			"sampler":0,
			"source":0
		}
	],
	"images":[
		{
			"mimeType":"image/png",
			"name":"711_Bake",
			"uri":"711_Bake.png"
		}
	],
	"accessors":[
		{
			"bufferView":0,
			"componentType":5126,
			"count":129,
			"max":[
				1,
				1.9129284620285034,
				2.4737257957458496
			],
			"min":[
				-2.3750343322753906,
				0,
				-3.145832061767578
			],
			"type":"VEC3"
		},
		{
			"bufferView":1,
			"componentType":5126,
			"count":129,
			"type":"VEC2"
		},
		{
			"bufferView":2,
			"componentType":5126,
			"count":129,
			"type":"VEC2"
		},
		{
			"bufferView":3,
			"componentType":5126,
			"count":129,
			"type":"VEC3"
		},
		{
			"bufferView":4,
			"componentType":5123,
			"count":294,
			"type":"SCALAR"
		},
		{
			"bufferView":5,
			"componentType":5126,
			"count":470,
			"max":[
				1.0264942646026611,
				2.017914295196533,
				2.5003318786621094
			],
			"min":[
				-2.392874240875244,
				5.960464477539063e-08,
				-3.1930432319641113
			],
			"type":"VEC3"
		},
		{
			"bufferView":6,
			"componentType":5126,
			"count":470,
			"type":"VEC2"
		},
		{
			"bufferView":7,
			"componentType":5126,
			"count":470,
			"type":"VEC2"
		},
		{
			"bufferView":8,
			"componentType":5126,
			"count":470,
			"type":"VEC3"
		},
		{
			"bufferView":9,
			"componentType":5123,
			"count":1230,
			"type":"SCALAR"
		},
		{
			"bufferView":10,
			"componentType":5126,
			"count":155,
			"max":[
				1,
				1.9129284620285034,
				2.2206451892852783
			],
			"min":[
				-2.105949878692627,
				0,
				-3.145832061767578
			],
			"type":"VEC3"
		},
		{
			"bufferView":11,
			"componentType":5126,
			"count":155,
			"type":"VEC2"
		},
		{
			"bufferView":12,
			"componentType":5126,
			"count":155,
			"type":"VEC2"
		},
		{
			"bufferView":13,
			"componentType":5126,
			"count":155,
			"type":"VEC3"
		},
		{
			"bufferView":14,
			"componentType":5123,
			"count":516,
			"type":"SCALAR"
		},
		{
			"bufferView":15,
			"componentType":5126,
			"count":80,
			"max":[
				1,
				1.9956952333450317,
				2.4737257957458496
			],
			"min":[
				-2.3750343322753906,
				1.4307692050933838,
				-3.145832061767578
			],
			"type":"VEC3"
		},
		{
			"bufferView":16,
			"componentType":5126,
			"count":80,
			"type":"VEC2"
		},
		{
			"bufferView":17,
			"componentType":5126,
			"count":80,
			"type":"VEC2"
		},
		{
			"bufferView":18,
			"componentType":5126,
			"count":80,
			"type":"VEC3"
		},
		{
			"bufferView":19,
			"componentType":5123,
			"count":198,
			"type":"SCALAR"
		},
		{
			"bufferView":20,
			"componentType":5126,
			"count":38,
			"max":[
				1,
				1.4307692050933838,
				2.0169105529785156
			],
			"min":[
				-1.9412214756011963,
				0.2892684042453766,
				2.0169105529785156
			],
			"type":"VEC3"
		},
		{
			"bufferView":21,
			"componentType":5126,
			"count":38,
			"type":"VEC2"
		},
		{
			"bufferView":22,
			"componentType":5126,
			"count":38,
			"type":"VEC2"
		},
		{
			"bufferView":23,
			"componentType":5126,
			"count":38,
			"type":"VEC3"
		},
		{
			"bufferView":24,
			"componentType":5123,
			"count":78,
			"type":"SCALAR"
		}
	],
	"bufferViews":[
		{
			"buffer":0,
			"byteLength":1548,
			"byteOffset":0,
			"target":34962
		},
		{
			"buffer":0,
			"byteLength":1032,
			"byteOffset":1548,
			"target":34962
		},
		{
			"buffer":0,
			"byteLength":1032,
			"byteOffset":2580,
			"target":34962
		},
		{
			"buffer":0,
			"byteLength":1548,
			"byteOffset":3612,
			"target":34962
		},
		{
			"buffer":0,
			"byteLength":588,
			"byteOffset":5160,
			"target":34963
		},
		{
			"buffer":0,
			"byteLength":5640,
			"byteOffset":5748,
			"target":34962
		},
		{
			"buffer":0,
			"byteLength":3760,
			"byteOffset":11388,
			"target":34962
		},
		{
			"buffer":0,
			"byteLength":3760,
			"byteOffset":15148,
			"target":34962
		},
		{
			"buffer":0,
			"byteLength":5640,
			"byteOffset":18908,
			"target":34962
		},
		{
			"buffer":0,
			"byteLength":2460,
			"byteOffset":24548,
			"target":34963
		},
		{
			"buffer":0,
			"byteLength":1860,
			"byteOffset":27008,
			"target":34962
		},
		{
			"buffer":0,
			"byteLength":1240,
			"byteOffset":28868,
			"target":34962
		},
		{
			"buffer":0,
			"byteLength":1240,
			"byteOffset":30108,
			"target":34962
		},
		{
			"buffer":0,
			"byteLength":1860,
			"byteOffset":31348,
			"target":34962
		},
		{
			"buffer":0,
			"byteLength":1032,
			"byteOffset":33208,
			"target":34963
		},
		{
			"buffer":0,
			"byteLength":960,
			"byteOffset":34240,
			"target":34962
		},
		{
			"buffer":0,
			"byteLength":640,
			"byteOffset":35200,
			"target":34962
		},
		{
			"buffer":0,
			"byteLength":640,
			"byteOffset":35840,
			"target":34962
		},
		{
			"buffer":0,
			"byteLength":960,
			"byteOffset":36480,
			"target":34962
		},
		{
			"buffer":0,
			"byteLength":396,
			"byteOffset":37440,
			"target":34963
		},
		{
			"buffer":0,
			"byteLength":456,
			"byteOffset":37836,
			"target":34962
		},
		{
			"buffer":0,
			"byteLength":304,
			"byteOffset":38292,
			"target":34962
		},
		{
			"buffer":0,
			"byteLength":304,
			"byteOffset":38596,
			"target":34962
		},
		{
			"buffer":0,
			"byteLength":456,
			"byteOffset":38900,
			"target":34962
		},
		{
			"buffer":0,
			"byteLength":156,
			"byteOffset":39356,
			"target":34963
		}
	],
	"samplers":[
		{
			"magFilter":9729,
			"minFilter":9987
		}
	],
	"buffers":[
		{
			"byteLength":39512,
			"uri":"711.bin"
		}
	]
}
