{
	"asset":{
		"generator":"Khronos glTF Blender I/O v3.5.30",
		"version":"2.0"
	},
	"extensionsUsed":[
		"KHR_materials_emissive_strength",
		"KHR_materials_specular",
		"KHR_materials_ior"
	],
	"scene":0,
	"scenes":[
		{
			"name":"Scene",
			"nodes":[
				0,
				1
			]
		}
	],
	"nodes":[
		{
			"mesh":0,
			"name":"Pole",
			"scale":[
				0.07321800291538239,
				2.501430034637451,
				0.07321800291538239
			],
			"translation":[
				-6.5114898681640625,
				0.3964945077896118,
				2.967519998550415
			]
		},
		{
			"mesh":1,
			"name":"Pole.001",
			"scale":[
				0.07321800291538239,
				2.501430034637451,
				0.07321800291538239
			],
			"translation":[
				9.567144393920898,
				0.3964945077896118,
				2.967519998550415
			]
		}
	],
	"materials":[
		{
			"doubleSided":true,
			"name":"Aluminum ",
			"pbrMetallicRoughness":{
				"baseColorFactor":[
					0.1733548790216446,
					0.1733548790216446,
					0.1733548790216446,
					1
				],
				"metallicFactor":0,
				"roughnessFactor":0.18275010585784912
			}
		},
		{
			"doubleSided":true,
			"emissiveFactor":[
				1,
				0.6578316688537598,
				0.13027675449848175
			],
			"extensions":{
				"KHR_materials_emissive_strength":{
					"emissiveStrength":4
				}
			},
			"name":"Sign_Emission 2",
			"pbrMetallicRoughness":{
				"baseColorFactor":[
					0.8000000715255737,
					0.12345146387815475,
					0.010482310317456722,
					1
				],
				"metallicFactor":0,
				"roughnessFactor":0.5
			}
		},
		{
			"doubleSided":true,
			"extensions":{
				"KHR_materials_specular":{
					"specularColorFactor":[
						0,
						0,
						0
					]
				},
				"KHR_materials_ior":{
					"ior":1.4500000476837158
				}
			},
			"name":"Stoppers",
			"pbrMetallicRoughness":{
				"baseColorFactor":[
					0.0579366497695446,
					0.0579366497695446,
					0.0579366497695446,
					1
				],
				"metallicFactor":0
			}
		}
	],
	"meshes":[
		{
			"name":"Cylinder.001",
			"primitives":[
				{
					"attributes":{
						"POSITION":0,
						"TEXCOORD_0":1,
						"NORMAL":2
					},
					"indices":3,
					"material":0
				},
				{
					"attributes":{
						"POSITION":4,
						"TEXCOORD_0":5,
						"NORMAL":6
					},
					"indices":7,
					"material":1
				},
				{
					"attributes":{
						"POSITION":8,
						"TEXCOORD_0":9,
						"NORMAL":10
					},
					"indices":11,
					"material":2
				}
			]
		},
		{
			"name":"Cylinder.002",
			"primitives":[
				{
					"attributes":{
						"POSITION":12,
						"TEXCOORD_0":13,
						"NORMAL":14
					},
					"indices":3,
					"material":0
				},
				{
					"attributes":{
						"POSITION":15,
						"TEXCOORD_0":16,
						"NORMAL":17
					},
					"indices":18,
					"material":1
				}
			]
		}
	],
	"accessors":[
		{
			"bufferView":0,
			"componentType":5126,
			"count":1939,
			"max":[
				11.319375991821289,
				2.323683738708496,
				11.388960838317871
			],
			"min":[
				-11.319377899169922,
				0,
				-1
			],
			"type":"VEC3"
		},
		{
			"bufferView":1,
			"componentType":5126,
			"count":1939,
			"type":"VEC2"
		},
		{
			"bufferView":2,
			"componentType":5126,
			"count":1939,
			"type":"VEC3"
		},
		{
			"bufferView":3,
			"componentType":5123,
			"count":7176,
			"type":"SCALAR"
		},
		{
			"bufferView":4,
			"componentType":5126,
			"count":60,
			"max":[
				10.10228157043457,
				2.1155214309692383,
				9.983580589294434
			],
			"min":[
				-10.10228157043457,
				1.9079179763793945,
				3.1360676288604736
			],
			"type":"VEC3"
		},
		{
			"bufferView":5,
			"componentType":5126,
			"count":60,
			"type":"VEC2"
		},
		{
			"bufferView":6,
			"componentType":5126,
			"count":60,
			"type":"VEC3"
		},
		{
			"bufferView":7,
			"componentType":5123,
			"count":96,
			"type":"SCALAR"
		},
		{
			"bufferView":8,
			"componentType":5126,
			"count":1636,
			"max":[
				3.203495502471924,
				2.2407419681549072,
				7.7338056564331055
			],
			"min":[
				-3.203495502471924,
				2.2067105770111084,
				5.410595893859863
			],
			"type":"VEC3"
		},
		{
			"bufferView":9,
			"componentType":5126,
			"count":1636,
			"type":"VEC2"
		},
		{
			"bufferView":10,
			"componentType":5126,
			"count":1636,
			"type":"VEC3"
		},
		{
			"bufferView":11,
			"componentType":5123,
			"count":2574,
			"type":"SCALAR"
		},
		{
			"bufferView":12,
			"componentType":5126,
			"count":1939,
			"max":[
				11.319375991821289,
				2.323683738708496,
				11.388960838317871
			],
			"min":[
				-11.319377899169922,
				0,
				-1
			],
			"type":"VEC3"
		},
		{
			"bufferView":13,
			"componentType":5126,
			"count":1939,
			"type":"VEC2"
		},
		{
			"bufferView":14,
			"componentType":5126,
			"count":1939,
			"type":"VEC3"
		},
		{
			"bufferView":15,
			"componentType":5126,
			"count":1696,
			"max":[
				10.10228157043457,
				2.2407419681549072,
				9.983580589294434
			],
			"min":[
				-10.10228157043457,
				1.9079179763793945,
				3.1360676288604736
			],
			"type":"VEC3"
		},
		{
			"bufferView":16,
			"componentType":5126,
			"count":1696,
			"type":"VEC2"
		},
		{
			"bufferView":17,
			"componentType":5126,
			"count":1696,
			"type":"VEC3"
		},
		{
			"bufferView":18,
			"componentType":5123,
			"count":2670,
			"type":"SCALAR"
		}
	],
	"bufferViews":[
		{
			"buffer":0,
			"byteLength":23268,
			"byteOffset":0,
			"target":34962
		},
		{
			"buffer":0,
			"byteLength":15512,
			"byteOffset":23268,
			"target":34962
		},
		{
			"buffer":0,
			"byteLength":23268,
			"byteOffset":38780,
			"target":34962
		},
		{
			"buffer":0,
			"byteLength":14352,
			"byteOffset":62048,
			"target":34963
		},
		{
			"buffer":0,
			"byteLength":720,
			"byteOffset":76400,
			"target":34962
		},
		{
			"buffer":0,
			"byteLength":480,
			"byteOffset":77120,
			"target":34962
		},
		{
			"buffer":0,
			"byteLength":720,
			"byteOffset":77600,
			"target":34962
		},
		{
			"buffer":0,
			"byteLength":192,
			"byteOffset":78320,
			"target":34963
		},
		{
			"buffer":0,
			"byteLength":19632,
			"byteOffset":78512,
			"target":34962
		},
		{
			"buffer":0,
			"byteLength":13088,
			"byteOffset":98144,
			"target":34962
		},
		{
			"buffer":0,
			"byteLength":19632,
			"byteOffset":111232,
			"target":34962
		},
		{
			"buffer":0,
			"byteLength":5148,
			"byteOffset":130864,
			"target":34963
		},
		{
			"buffer":0,
			"byteLength":23268,
			"byteOffset":136012,
			"target":34962
		},
		{
			"buffer":0,
			"byteLength":15512,
			"byteOffset":159280,
			"target":34962
		},
		{
			"buffer":0,
			"byteLength":23268,
			"byteOffset":174792,
			"target":34962
		},
		{
			"buffer":0,
			"byteLength":20352,
			"byteOffset":198060,
			"target":34962
		},
		{
			"buffer":0,
			"byteLength":13568,
			"byteOffset":218412,
			"target":34962
		},
		{
			"buffer":0,
			"byteLength":20352,
			"byteOffset":231980,
			"target":34962
		},
		{
			"buffer":0,
			"byteLength":5340,
			"byteOffset":252332,
			"target":34963
		}
	],
	"buffers":[
		{
			"byteLength":257672,
			"uri":"street_lights.bin"
		}
	]
}
