{
	"asset":{
		"generator":"Khronos glTF Blender I/O v3.5.30",
		"version":"2.0"
	},
	"extensionsUsed":[
		"KHR_materials_specular",
		"KHR_materials_ior"
	],
	"scene":0,
	"scenes":[
		{
			"name":"Scene",
			"nodes":[
				0
			]
		}
	],
	"nodes":[
		{
			"mesh":0,
			"name":"Cube.038",
			"translation":[
				6.387370586395264,
				4.935161590576172,
				0
			]
		}
	],
	"materials":[
		{
			"doubleSided":true,
			"name":"AC",
			"pbrMetallicRoughness":{
				"baseColorTexture":{
					"index":0,
					"texCoord":1
				},
				"metallicFactor":0,
				"roughnessFactor":0.5
			}
		},
		{
			"doubleSided":true,
			"extensions":{
				"KHR_materials_specular":{
					"specularColorFactor":[
						0.4634926419875735,
						0.4634926419875735,
						0.4634926419875735
					]
				},
				"KHR_materials_ior":{
					"ior":1.4500000476837158
				}
			},
			"name":"Blue Steel ",
			"pbrMetallicRoughness":{
				"baseColorTexture":{
					"index":1,
					"texCoord":1
				},
				"metallicFactor":0
			}
		}
	],
	"meshes":[
		{
			"name":"Cube.022",
			"primitives":[
				{
					"attributes":{
						"POSITION":0,
						"TEXCOORD_0":1,
						"TEXCOORD_1":2,
						"NORMAL":3
					},
					"indices":4,
					"material":0
				},
				{
					"attributes":{
						"POSITION":5,
						"TEXCOORD_0":6,
						"TEXCOORD_1":7,
						"NORMAL":8
					},
					"indices":9,
					"material":1
				}
			]
		}
	],
	"textures":[
		{
			"sampler":0,
			"source":0
		},
		{
			"sampler":0,
			"source":0
		}
	],
	"images":[
		{
			"mimeType":"image/png",
			"name":"AC_Bake_3",
			"uri":"AC_Bake_3.png"
		}
	],
	"accessors":[
		{
			"bufferView":0,
			"componentType":5126,
			"count":452,
			"max":[
				0.21093568205833435,
				0.800000011920929,
				0.6371703743934631
			],
			"min":[
				-0.20000000298023224,
				0,
				-0.6189937591552734
			],
			"type":"VEC3"
		},
		{
			"bufferView":1,
			"componentType":5126,
			"count":452,
			"type":"VEC2"
		},
		{
			"bufferView":2,
			"componentType":5126,
			"count":452,
			"type":"VEC2"
		},
		{
			"bufferView":3,
			"componentType":5126,
			"count":452,
			"type":"VEC3"
		},
		{
			"bufferView":4,
			"componentType":5123,
			"count":1044,
			"type":"SCALAR"
		},
		{
			"bufferView":5,
			"componentType":5126,
			"count":632,
			"max":[
				-0.017067668959498405,
				0.7277399301528931,
				-0.38696667551994324
			],
			"min":[
				-2.8396055698394775,
				-0.22737717628479004,
				-7.155467987060547
			],
			"type":"VEC3"
		},
		{
			"bufferView":6,
			"componentType":5126,
			"count":632,
			"type":"VEC2"
		},
		{
			"bufferView":7,
			"componentType":5126,
			"count":632,
			"type":"VEC2"
		},
		{
			"bufferView":8,
			"componentType":5126,
			"count":632,
			"type":"VEC3"
		},
		{
			"bufferView":9,
			"componentType":5123,
			"count":984,
			"type":"SCALAR"
		}
	],
	"bufferViews":[
		{
			"buffer":0,
			"byteLength":5424,
			"byteOffset":0,
			"target":34962
		},
		{
			"buffer":0,
			"byteLength":3616,
			"byteOffset":5424,
			"target":34962
		},
		{
			"buffer":0,
			"byteLength":3616,
			"byteOffset":9040,
			"target":34962
		},
		{
			"buffer":0,
			"byteLength":5424,
			"byteOffset":12656,
			"target":34962
		},
		{
			"buffer":0,
			"byteLength":2088,
			"byteOffset":18080,
			"target":34963
		},
		{
			"buffer":0,
			"byteLength":7584,
			"byteOffset":20168,
			"target":34962
		},
		{
			"buffer":0,
			"byteLength":5056,
			"byteOffset":27752,
			"target":34962
		},
		{
			"buffer":0,
			"byteLength":5056,
			"byteOffset":32808,
			"target":34962
		},
		{
			"buffer":0,
			"byteLength":7584,
			"byteOffset":37864,
			"target":34962
		},
		{
			"buffer":0,
			"byteLength":1968,
			"byteOffset":45448,
			"target":34963
		}
	],
	"samplers":[
		{
			"magFilter":9729,
			"minFilter":9987
		}
	],
	"buffers":[
		{
			"byteLength":47416,
			"uri":"ac_unit.bin"
		}
	]
}
