{
	"asset":{
		"generator":"Khronos glTF Blender I/O v3.5.30",
		"version":"2.0"
	},
	"extensionsUsed":[
		"KHR_materials_specular",
		"KHR_materials_ior"
	],
	"scene":0,
	"scenes":[
		{
			"name":"Scene",
			"nodes":[
				0
			]
		}
	],
	"nodes":[
		{
			"mesh":0,
			"name":"Beer Crate",
			"scale":[
				0.8012392520904541,
				0.8012392520904541,
				0.8012392520904541
			],
			"translation":[
				9.930795669555664,
				0.28976354002952576,
				-0.35862240195274353
			]
		}
	],
	"materials":[
		{
			"doubleSided":true,
			"extensions":{
				"KHR_materials_specular":{
					"specularColorFactor":[
						0.5066082291951655,
						0.5066082291951655,
						0.5066082291951655
					]
				},
				"KHR_materials_ior":{
					"ior":1.4500000476837158
				}
			},
			"name":"Beer Crate",
			"pbrMetallicRoughness":{
				"baseColorTexture":{
					"index":0
				},
				"metallicFactor":0,
				"roughnessFactor":0.9454545378684998
			}
		}
	],
	"meshes":[
		{
			"name":"Cube.039",
			"primitives":[
				{
					"attributes":{
						"POSITION":0,
						"TEXCOORD_0":1,
						"NORMAL":2
					},
					"indices":3,
					"material":0
				}
			]
		}
	],
	"textures":[
		{
			"sampler":0,
			"source":0
		}
	],
	"images":[
		{
			"mimeType":"image/png",
			"name":"Beer Crate",
			"uri":"Beer%20Crate.png"
		}
	],
	"accessors":[
		{
			"bufferView":0,
			"componentType":5126,
			"count":49485,
			"max":[
				2.4209089279174805,
				2.3227217197418213,
				0.8057439923286438
			],
			"min":[
				-0.7394931316375732,
				-1.4496850386791493e-09,
				-1.0690650939941406
			],
			"type":"VEC3"
		},
		{
			"bufferView":1,
			"componentType":5126,
			"count":49485,
			"type":"VEC2"
		},
		{
			"bufferView":2,
			"componentType":5126,
			"count":49485,
			"type":"VEC3"
		},
		{
			"bufferView":3,
			"componentType":5123,
			"count":165600,
			"type":"SCALAR"
		}
	],
	"bufferViews":[
		{
			"buffer":0,
			"byteLength":593820,
			"byteOffset":0,
			"target":34962
		},
		{
			"buffer":0,
			"byteLength":395880,
			"byteOffset":593820,
			"target":34962
		},
		{
			"buffer":0,
			"byteLength":593820,
			"byteOffset":989700,
			"target":34962
		},
		{
			"buffer":0,
			"byteLength":331200,
			"byteOffset":1583520,
			"target":34963
		}
	],
	"samplers":[
		{
			"magFilter":9729,
			"minFilter":9987
		}
	],
	"buffers":[
		{
			"byteLength":1914720,
			"uri":"beer_crates.bin"
		}
	]
}
