{
	"asset":{
		"generator":"Khronos glTF Blender I/O v3.5.30",
		"version":"2.0"
	},
	"scene":0,
	"scenes":[
		{
			"name":"Scene",
			"nodes":[
				0
			]
		}
	],
	"nodes":[
		{
			"mesh":0,
			"name":"Cube",
			"rotation":[
				0,
				0.7071068286895752,
				0,
				0.7071068286895752
			],
			"scale":[
				0.5594644546508789,
				0.5594644546508789,
				0.5594644546508789
			]
		}
	],
	"materials":[
		{
			"doubleSided":true,
			"name":"Material",
			"pbrMetallicRoughness":{
				"baseColorFactor":[
					0.7230411171913147,
					0.6377254724502563,
					0.5598754286766052,
					1
				],
				"metallicFactor":0,
				"roughnessFactor":0.5
			}
		}
	],
	"meshes":[
		{
			"name":"Cube.001",
			"primitives":[
				{
					"attributes":{
						"POSITION":0,
						"NORMAL":1
					},
					"indices":2,
					"material":0
				}
			]
		}
	],
	"accessors":[
		{
			"bufferView":0,
			"componentType":5126,
			"count":3254,
			"max":[
				4.409757137298584,
				7.06312370300293,
				5.270045757293701
			],
			"min":[
				-4.392452239990234,
				-0.1130324974656105,
				-5.271793365478516
			],
			"type":"VEC3"
		},
		{
			"bufferView":1,
			"componentType":5126,
			"count":3254,
			"type":"VEC3"
		},
		{
			"bufferView":2,
			"componentType":5123,
			"count":5484,
			"type":"SCALAR"
		}
	],
	"bufferViews":[
		{
			"buffer":0,
			"byteLength":39048,
			"byteOffset":0,
			"target":34962
		},
		{
			"buffer":0,
			"byteLength":39048,
			"byteOffset":39048,
			"target":34962
		},
		{
			"buffer":0,
			"byteLength":10968,
			"byteOffset":78096,
			"target":34963
		}
	],
	"buffers":[
		{
			"byteLength":89064,
			"uri":"data:application/octet-stream;base64,"
		}
	]
}
