{
	"asset":{
		"generator":"Khronos glTF Blender I/O v3.5.30",
		"version":"2.0"
	},
	"extensionsUsed":[
		"KHR_materials_emissive_strength"
	],
	"scene":0,
	"scenes":[
		{
			"name":"Scene",
			"nodes":[
				0
			]
		}
	],
	"nodes":[
		{
			"mesh":0,
			"name":"Cube.041",
			"scale":[
				0.04507109150290489,
				0.9399904608726501,
				0.42436227202415466
			],
			"translation":[
				5.762901306152344,
				9.781325340270996,
				1.9511468410491943
			]
		}
	],
	"materials":[
		{
			"doubleSided":true,
			"name":"Sign_Bar",
			"pbrMetallicRoughness":{}
		},
		{
			"doubleSided":true,
			"emissiveFactor":[
				1,
				1,
				1
			],
			"emissiveTexture":{
				"index":0
			},
			"extensions":{
				"KHR_materials_emissive_strength":{
					"emissiveStrength":2
				}
			},
			"name":"Sign_Emission",
			"pbrMetallicRoughness":{
				"baseColorTexture":{
					"index":1
				},
				"metallicFactor":0,
				"roughnessFactor":0.5
			}
		}
	],
	"meshes":[
		{
			"name":"Cube.050",
			"primitives":[
				{
					"attributes":{
						"POSITION":0,
						"TEXCOORD_0":1,
						"NORMAL":2
					},
					"indices":3,
					"material":0
				},
				{
					"attributes":{
						"POSITION":4,
						"TEXCOORD_0":5,
						"NORMAL":6
					},
					"indices":7,
					"material":1
				}
			]
		}
	],
	"textures":[
		{
			"sampler":0,
			"source":0
		},
		{
			"sampler":0,
			"source":0
		}
	],
	"images":[
		{
			"mimeType":"image/png",
			"name":"Another_Sign",
			"uri":"Another_Sign.png"
		}
	],
	"accessors":[
		{
			"bufferView":0,
			"componentType":5126,
			"count":188,
			"max":[
				1,
				1.029087781906128,
				1
			],
			"min":[
				-1,
				-1.029087781906128,
				-1.6996492147445679
			],
			"type":"VEC3"
		},
		{
			"bufferView":1,
			"componentType":5126,
			"count":188,
			"type":"VEC2"
		},
		{
			"bufferView":2,
			"componentType":5126,
			"count":188,
			"type":"VEC3"
		},
		{
			"bufferView":3,
			"componentType":5123,
			"count":324,
			"type":"SCALAR"
		},
		{
			"bufferView":4,
			"componentType":5126,
			"count":12,
			"max":[
				1,
				0.9304189682006836,
				0.8677610754966736
			],
			"min":[
				-1,
				-0.9304189682006836,
				-0.8677610754966736
			],
			"type":"VEC3"
		},
		{
			"bufferView":5,
			"componentType":5126,
			"count":12,
			"type":"VEC2"
		},
		{
			"bufferView":6,
			"componentType":5126,
			"count":12,
			"type":"VEC3"
		},
		{
			"bufferView":7,
			"componentType":5123,
			"count":24,
			"type":"SCALAR"
		}
	],
	"bufferViews":[
		{
			"buffer":0,
			"byteLength":2256,
			"byteOffset":0,
			"target":34962
		},
		{
			"buffer":0,
			"byteLength":1504,
			"byteOffset":2256,
			"target":34962
		},
		{
			"buffer":0,
			"byteLength":2256,
			"byteOffset":3760,
			"target":34962
		},
		{
			"buffer":0,
			"byteLength":648,
			"byteOffset":6016,
			"target":34963
		},
		{
			"buffer":0,
			"byteLength":144,
			"byteOffset":6664,
			"target":34962
		},
		{
			"buffer":0,
			"byteLength":96,
			"byteOffset":6808,
			"target":34962
		},
		{
			"buffer":0,
			"byteLength":144,
			"byteOffset":6904,
			"target":34962
		},
		{
			"buffer":0,
			"byteLength":48,
			"byteOffset":7048,
			"target":34963
		}
	],
	"samplers":[
		{
			"magFilter":9729,
			"minFilter":9987
		}
	],
	"buffers":[
		{
			"byteLength":7096,
			"uri":"top_sign.bin"
		}
	]
}
