{
	"asset":{
		"generator":"Khronos glTF Blender I/O v3.5.30",
		"version":"2.0"
	},
	"extensionsUsed":[
		"KHR_materials_specular",
		"KHR_materials_ior"
	],
	"scene":0,
	"scenes":[
		{
			"name":"Scene",
			"nodes":[
				0
			]
		}
	],
	"nodes":[
		{
			"mesh":0,
			"name":"Cube.034",
			"scale":[
				0.03224791958928108,
				0.03224791958928108,
				0.03224791958928108
			],
			"translation":[
				0.14647504687309265,
				3.4175913333892822,
				1.1753917932510376
			]
		}
	],
	"materials":[
		{
			"doubleSided":true,
			"name":"Support beams ",
			"pbrMetallicRoughness":{
				"baseColorFactor":[
					0.010581934824585915,
					0.010581934824585915,
					0.010581934824585915,
					1
				],
				"metallicFactor":0,
				"roughnessFactor":0.30000001192092896
			}
		},
		{
			"doubleSided":true,
			"extensions":{
				"KHR_materials_specular":{
					"specularColorFactor":[
						0,
						0,
						0
					]
				},
				"KHR_materials_ior":{
					"ior":1.4500000476837158
				}
			},
			"name":"Red Cover",
			"pbrMetallicRoughness":{
				"baseColorFactor":[
					0.1473066657781601,
					0.022390151396393776,
					0.01982792466878891,
					1
				],
				"metallicFactor":0,
				"roughnessFactor":0.5
			}
		}
	],
	"meshes":[
		{
			"name":"Cube.052",
			"primitives":[
				{
					"attributes":{
						"POSITION":0,
						"TEXCOORD_0":1,
						"NORMAL":2
					},
					"indices":3,
					"material":0
				},
				{
					"attributes":{
						"POSITION":4,
						"TEXCOORD_0":5,
						"NORMAL":6
					},
					"indices":7,
					"material":1
				}
			]
		}
	],
	"accessors":[
		{
			"bufferView":0,
			"componentType":5126,
			"count":240,
			"max":[
				183.10162353515625,
				31.919788360595703,
				60.26822280883789
			],
			"min":[
				-1,
				-1,
				-3.660212516784668
			],
			"type":"VEC3"
		},
		{
			"bufferView":1,
			"componentType":5126,
			"count":240,
			"type":"VEC2"
		},
		{
			"bufferView":2,
			"componentType":5126,
			"count":240,
			"type":"VEC3"
		},
		{
			"bufferView":3,
			"componentType":5123,
			"count":516,
			"type":"SCALAR"
		},
		{
			"bufferView":4,
			"componentType":5126,
			"count":17,
			"max":[
				181.91229248046875,
				27.825843811035156,
				58.20234298706055
			],
			"min":[
				-0.36103057861328125,
				1.1938648223876953,
				1.948751449584961
			],
			"type":"VEC3"
		},
		{
			"bufferView":5,
			"componentType":5126,
			"count":17,
			"type":"VEC2"
		},
		{
			"bufferView":6,
			"componentType":5126,
			"count":17,
			"type":"VEC3"
		},
		{
			"bufferView":7,
			"componentType":5123,
			"count":60,
			"type":"SCALAR"
		}
	],
	"bufferViews":[
		{
			"buffer":0,
			"byteLength":2880,
			"byteOffset":0,
			"target":34962
		},
		{
			"buffer":0,
			"byteLength":1920,
			"byteOffset":2880,
			"target":34962
		},
		{
			"buffer":0,
			"byteLength":2880,
			"byteOffset":4800,
			"target":34962
		},
		{
			"buffer":0,
			"byteLength":1032,
			"byteOffset":7680,
			"target":34963
		},
		{
			"buffer":0,
			"byteLength":204,
			"byteOffset":8712,
			"target":34962
		},
		{
			"buffer":0,
			"byteLength":136,
			"byteOffset":8916,
			"target":34962
		},
		{
			"buffer":0,
			"byteLength":204,
			"byteOffset":9052,
			"target":34962
		},
		{
			"buffer":0,
			"byteLength":120,
			"byteOffset":9256,
			"target":34963
		}
	],
	"buffers":[
		{
			"byteLength":9376,
			"uri":"rain_cover.bin"
		}
	]
}
