{
	"asset":{
		"generator":"Khronos glTF Blender I/O v3.5.30",
		"version":"2.0"
	},
	"extensionsUsed":[
		"KHR_materials_specular",
		"KHR_materials_ior",
		"KHR_materials_emissive_strength"
	],
	"scene":0,
	"scenes":[
		{
			"name":"Scene",
			"nodes":[
				0
			]
		}
	],
	"nodes":[
		{
			"mesh":0,
			"name":"Cube.004",
			"rotation":[
				0,
				-0.45659708976745605,
				0,
				0.8896735906600952
			],
			"scale":[
				1,
				1,
				0.5082002878189087
			],
			"translation":[
				6.268315315246582,
				0.6109391450881958,
				4.09476375579834
			]
		}
	],
	"materials":[
		{
			"doubleSided":true,
			"name":"Aluminum ",
			"pbrMetallicRoughness":{
				"baseColorFactor":[
					0.1733548790216446,
					0.1733548790216446,
					0.1733548790216446,
					1
				],
				"metallicFactor":0,
				"roughnessFactor":0.18275010585784912
			}
		},
		{
			"doubleSided":true,
			"extensions":{
				"KHR_materials_specular":{
					"specularColorFactor":[
						0,
						0,
						0
					]
				},
				"KHR_materials_ior":{
					"ior":1.4500000476837158
				}
			},
			"name":"Stoppers",
			"pbrMetallicRoughness":{
				"baseColorFactor":[
					0.0579366497695446,
					0.0579366497695446,
					0.0579366497695446,
					1
				],
				"metallicFactor":0
			}
		},
		{
			"doubleSided":true,
			"emissiveFactor":[
				1,
				1,
				1
			],
			"emissiveTexture":{
				"index":0
			},
			"extensions":{
				"KHR_materials_emissive_strength":{
					"emissiveStrength":8.199999809265137
				}
			},
			"name":"Sign_Emission_2",
			"pbrMetallicRoughness":{
				"baseColorTexture":{
					"index":1
				},
				"metallicFactor":0,
				"roughnessFactor":0.5
			}
		}
	],
	"meshes":[
		{
			"name":"Cube.005",
			"primitives":[
				{
					"attributes":{
						"POSITION":0,
						"TEXCOORD_0":1,
						"NORMAL":2
					},
					"indices":3,
					"material":0
				},
				{
					"attributes":{
						"POSITION":4,
						"TEXCOORD_0":5,
						"NORMAL":6
					},
					"indices":7,
					"material":1
				},
				{
					"attributes":{
						"POSITION":8,
						"TEXCOORD_0":9,
						"NORMAL":10
					},
					"indices":11,
					"material":2
				}
			]
		}
	],
	"textures":[
		{
			"sampler":0,
			"source":0
		},
		{
			"sampler":0,
			"source":0
		}
	],
	"images":[
		{
			"mimeType":"image/png",
			"name":"Sign_1",
			"uri":"Sign_1.png"
		}
	],
	"accessors":[
		{
			"bufferView":0,
			"componentType":5126,
			"count":1112,
			"max":[
				0.5306153893470764,
				1.309516191482544,
				0.8530914783477783
			],
			"min":[
				-0.5306153893470764,
				-0.4592052698135376,
				-0.8578737378120422
			],
			"type":"VEC3"
		},
		{
			"bufferView":1,
			"componentType":5126,
			"count":1112,
			"type":"VEC2"
		},
		{
			"bufferView":2,
			"componentType":5126,
			"count":1112,
			"type":"VEC3"
		},
		{
			"bufferView":3,
			"componentType":5123,
			"count":2574,
			"type":"SCALAR"
		},
		{
			"bufferView":4,
			"componentType":5126,
			"count":92,
			"max":[
				0.5119552612304688,
				0.8587850332260132,
				0.057108622044324875
			],
			"min":[
				-0.5119552612304688,
				-0.11783291399478912,
				-0.0620134137570858
			],
			"type":"VEC3"
		},
		{
			"bufferView":5,
			"componentType":5126,
			"count":92,
			"type":"VEC2"
		},
		{
			"bufferView":6,
			"componentType":5126,
			"count":92,
			"type":"VEC3"
		},
		{
			"bufferView":7,
			"componentType":5123,
			"count":156,
			"type":"SCALAR"
		},
		{
			"bufferView":8,
			"componentType":5126,
			"count":60,
			"max":[
				0.416625052690506,
				1.2818561792373657,
				0.055648501962423325
			],
			"min":[
				-0.416625052690506,
				0,
				-0.055648501962423325
			],
			"type":"VEC3"
		},
		{
			"bufferView":9,
			"componentType":5126,
			"count":60,
			"type":"VEC2"
		},
		{
			"bufferView":10,
			"componentType":5126,
			"count":60,
			"type":"VEC3"
		},
		{
			"bufferView":11,
			"componentType":5123,
			"count":168,
			"type":"SCALAR"
		}
	],
	"bufferViews":[
		{
			"buffer":0,
			"byteLength":13344,
			"byteOffset":0,
			"target":34962
		},
		{
			"buffer":0,
			"byteLength":8896,
			"byteOffset":13344,
			"target":34962
		},
		{
			"buffer":0,
			"byteLength":13344,
			"byteOffset":22240,
			"target":34962
		},
		{
			"buffer":0,
			"byteLength":5148,
			"byteOffset":35584,
			"target":34963
		},
		{
			"buffer":0,
			"byteLength":1104,
			"byteOffset":40732,
			"target":34962
		},
		{
			"buffer":0,
			"byteLength":736,
			"byteOffset":41836,
			"target":34962
		},
		{
			"buffer":0,
			"byteLength":1104,
			"byteOffset":42572,
			"target":34962
		},
		{
			"buffer":0,
			"byteLength":312,
			"byteOffset":43676,
			"target":34963
		},
		{
			"buffer":0,
			"byteLength":720,
			"byteOffset":43988,
			"target":34962
		},
		{
			"buffer":0,
			"byteLength":480,
			"byteOffset":44708,
			"target":34962
		},
		{
			"buffer":0,
			"byteLength":720,
			"byteOffset":45188,
			"target":34962
		},
		{
			"buffer":0,
			"byteLength":336,
			"byteOffset":45908,
			"target":34963
		}
	],
	"samplers":[
		{
			"magFilter":9729,
			"minFilter":9987
		}
	],
	"buffers":[
		{
			"byteLength":46244,
			"uri":"sign1.bin"
		}
	]
}
