{
	"asset":{
		"generator":"Khronos glTF Blender I/O v3.5.30",
		"version":"2.0"
	},
	"scene":0,
	"scenes":[
		{
			"name":"Scene",
			"nodes":[
				0
			]
		}
	],
	"nodes":[
		{
			"mesh":0,
			"name":"Cube.015",
			"scale":[
				1.009811520576477,
				1,
				1
			],
			"translation":[
				-2.2955708503723145,
				0.37453725934028625,
				0.3248068690299988
			]
		}
	],
	"materials":[
		{
			"doubleSided":true,
			"name":"Vending_Red",
			"pbrMetallicRoughness":{
				"baseColorTexture":{
					"index":0
				},
				"metallicFactor":0,
				"roughnessFactor":0.5
			}
		},
		{
			"doubleSided":true,
			"name":"Aluminum ",
			"pbrMetallicRoughness":{
				"baseColorFactor":[
					0.1733548790216446,
					0.1733548790216446,
					0.1733548790216446,
					1
				],
				"metallicFactor":0,
				"roughnessFactor":0.18275010585784912
			}
		}
	],
	"meshes":[
		{
			"name":"Cube.046",
			"primitives":[
				{
					"attributes":{
						"POSITION":0,
						"TEXCOORD_0":1,
						"NORMAL":2
					},
					"indices":3,
					"material":0
				},
				{
					"attributes":{
						"POSITION":4,
						"TEXCOORD_0":5,
						"NORMAL":6
					},
					"indices":7,
					"material":1
				}
			]
		}
	],
	"textures":[
		{
			"sampler":0,
			"source":0
		}
	],
	"images":[
		{
			"mimeType":"image/png",
			"name":"Vending_Red",
			"uri":"Vending_Red.png"
		}
	],
	"accessors":[
		{
			"bufferView":0,
			"componentType":5126,
			"count":572,
			"max":[
				0.6497651934623718,
				2.202176809310913,
				0.36710527539253235
			],
			"min":[
				-0.6475065350532532,
				0.0021768510341644287,
				-0.24422435462474823
			],
			"type":"VEC3"
		},
		{
			"bufferView":1,
			"componentType":5126,
			"count":572,
			"type":"VEC2"
		},
		{
			"bufferView":2,
			"componentType":5126,
			"count":572,
			"type":"VEC3"
		},
		{
			"bufferView":3,
			"componentType":5123,
			"count":1176,
			"type":"SCALAR"
		},
		{
			"bufferView":4,
			"componentType":5126,
			"count":908,
			"max":[
				0.6550526022911072,
				-0.004021644592285156,
				0.23897168040275574
			],
			"min":[
				-0.6550526022911072,
				-0.10339684784412384,
				-0.23958945274353027
			],
			"type":"VEC3"
		},
		{
			"bufferView":5,
			"componentType":5126,
			"count":908,
			"type":"VEC2"
		},
		{
			"bufferView":6,
			"componentType":5126,
			"count":908,
			"type":"VEC3"
		},
		{
			"bufferView":7,
			"componentType":5123,
			"count":2124,
			"type":"SCALAR"
		}
	],
	"bufferViews":[
		{
			"buffer":0,
			"byteLength":6864,
			"byteOffset":0,
			"target":34962
		},
		{
			"buffer":0,
			"byteLength":4576,
			"byteOffset":6864,
			"target":34962
		},
		{
			"buffer":0,
			"byteLength":6864,
			"byteOffset":11440,
			"target":34962
		},
		{
			"buffer":0,
			"byteLength":2352,
			"byteOffset":18304,
			"target":34963
		},
		{
			"buffer":0,
			"byteLength":10896,
			"byteOffset":20656,
			"target":34962
		},
		{
			"buffer":0,
			"byteLength":7264,
			"byteOffset":31552,
			"target":34962
		},
		{
			"buffer":0,
			"byteLength":10896,
			"byteOffset":38816,
			"target":34962
		},
		{
			"buffer":0,
			"byteLength":4248,
			"byteOffset":49712,
			"target":34963
		}
	],
	"samplers":[
		{
			"magFilter":9729,
			"minFilter":9987
		}
	],
	"buffers":[
		{
			"byteLength":53960,
			"uri":"vending2.bin"
		}
	]
}
