{
	"asset":{
		"generator":"Khronos glTF Blender I/O v3.5.30",
		"version":"2.0"
	},
	"extensionsUsed":[
		"KHR_materials_specular",
		"KHR_materials_ior"
	],
	"scene":0,
	"scenes":[
		{
			"name":"Scene",
			"nodes":[
				0
			]
		}
	],
	"nodes":[
		{
			"mesh":0,
			"name":"Circle",
			"scale":[
				0.624837338924408,
				0.8684753775596619,
				0.624837338924408
			],
			"translation":[
				0,
				0,
				-2.107548952102661
			]
		}
	],
	"materials":[
		{
			"doubleSided":true,
			"extensions":{
				"KHR_materials_specular":{
					"specularColorFactor":[
						1.8431915386384634,
						1.8431915386384634,
						1.8431915386384634
					]
				},
				"KHR_materials_ior":{
					"ior":1.4500000476837158
				}
			},
			"name":"Pavement ",
			"pbrMetallicRoughness":{
				"baseColorTexture":{
					"index":0,
					"texCoord":1
				},
				"metallicFactor":0,
				"metallicRoughnessTexture":{
					"index":1,
					"texCoord":1
				}
			}
		},
		{
			"doubleSided":true,
			"extensions":{
				"KHR_materials_specular":{
					"specularColorFactor":[
						0,
						0,
						0
					]
				},
				"KHR_materials_ior":{
					"ior":1.4500000476837158
				}
			},
			"name":"Cobble",
			"pbrMetallicRoughness":{
				"baseColorTexture":{
					"index":2,
					"texCoord":1
				},
				"metallicFactor":0
			}
		},
		{
			"doubleSided":true,
			"extensions":{
				"KHR_materials_specular":{
					"specularColorFactor":[
						2.371357614441398,
						2.371357614441398,
						2.371357614441398
					]
				},
				"KHR_materials_ior":{
					"ior":1.4500000476837158
				}
			},
			"name":"Material.001",
			"pbrMetallicRoughness":{
				"baseColorTexture":{
					"index":3,
					"texCoord":1
				},
				"metallicFactor":0
			}
		}
	],
	"meshes":[
		{
			"name":"Circle",
			"primitives":[
				{
					"attributes":{
						"POSITION":0,
						"TEXCOORD_0":1,
						"TEXCOORD_1":2,
						"NORMAL":3
					},
					"indices":4,
					"material":0
				},
				{
					"attributes":{
						"POSITION":5,
						"TEXCOORD_0":6,
						"TEXCOORD_1":7,
						"NORMAL":8
					},
					"indices":9,
					"material":1
				},
				{
					"attributes":{
						"POSITION":10,
						"TEXCOORD_0":11,
						"TEXCOORD_1":12,
						"NORMAL":13
					},
					"indices":14,
					"material":2
				}
			]
		}
	],
	"textures":[
		{
			"sampler":0,
			"source":0
		},
		{
			"sampler":0,
			"source":1
		},
		{
			"sampler":0,
			"source":0
		},
		{
			"sampler":0,
			"source":0
		}
	],
	"images":[
		{
			"mimeType":"image/png",
			"name":"aa ground",
			"uri":"aa%20ground.png"
		},
		{
			"mimeType":"image/png",
			"name":"aa roughness",
			"uri":"aa%20roughness.png"
		}
	],
	"accessors":[
		{
			"bufferView":0,
			"componentType":5126,
			"count":240,
			"max":[
				19.999998092651367,
				0.3257179856300354,
				19.999998092651367
			],
			"min":[
				-19.999998092651367,
				0,
				-19.999998092651367
			],
			"type":"VEC3"
		},
		{
			"bufferView":1,
			"componentType":5126,
			"count":240,
			"type":"VEC2"
		},
		{
			"bufferView":2,
			"componentType":5126,
			"count":240,
			"type":"VEC2"
		},
		{
			"bufferView":3,
			"componentType":5126,
			"count":240,
			"type":"VEC3"
		},
		{
			"bufferView":4,
			"componentType":5123,
			"count":702,
			"type":"SCALAR"
		},
		{
			"bufferView":5,
			"componentType":5126,
			"count":24,
			"max":[
				18.112247467041016,
				0.17564016580581665,
				15.573506355285645
			],
			"min":[
				-18.109697341918945,
				0.17564016580581665,
				8.477867126464844
			],
			"type":"VEC3"
		},
		{
			"bufferView":6,
			"componentType":5126,
			"count":24,
			"type":"VEC2"
		},
		{
			"bufferView":7,
			"componentType":5126,
			"count":24,
			"type":"VEC2"
		},
		{
			"bufferView":8,
			"componentType":5126,
			"count":24,
			"type":"VEC3"
		},
		{
			"bufferView":9,
			"componentType":5123,
			"count":66,
			"type":"SCALAR"
		},
		{
			"bufferView":10,
			"componentType":5126,
			"count":280,
			"max":[
				19.999998092651367,
				0.3257179856300354,
				19.999998092651367
			],
			"min":[
				-19.999998092651367,
				0,
				-19.999998092651367
			],
			"type":"VEC3"
		},
		{
			"bufferView":11,
			"componentType":5126,
			"count":280,
			"type":"VEC2"
		},
		{
			"bufferView":12,
			"componentType":5126,
			"count":280,
			"type":"VEC2"
		},
		{
			"bufferView":13,
			"componentType":5126,
			"count":280,
			"type":"VEC3"
		},
		{
			"bufferView":14,
			"componentType":5123,
			"count":804,
			"type":"SCALAR"
		}
	],
	"bufferViews":[
		{
			"buffer":0,
			"byteLength":2880,
			"byteOffset":0,
			"target":34962
		},
		{
			"buffer":0,
			"byteLength":1920,
			"byteOffset":2880,
			"target":34962
		},
		{
			"buffer":0,
			"byteLength":1920,
			"byteOffset":4800,
			"target":34962
		},
		{
			"buffer":0,
			"byteLength":2880,
			"byteOffset":6720,
			"target":34962
		},
		{
			"buffer":0,
			"byteLength":1404,
			"byteOffset":9600,
			"target":34963
		},
		{
			"buffer":0,
			"byteLength":288,
			"byteOffset":11004,
			"target":34962
		},
		{
			"buffer":0,
			"byteLength":192,
			"byteOffset":11292,
			"target":34962
		},
		{
			"buffer":0,
			"byteLength":192,
			"byteOffset":11484,
			"target":34962
		},
		{
			"buffer":0,
			"byteLength":288,
			"byteOffset":11676,
			"target":34962
		},
		{
			"buffer":0,
			"byteLength":132,
			"byteOffset":11964,
			"target":34963
		},
		{
			"buffer":0,
			"byteLength":3360,
			"byteOffset":12096,
			"target":34962
		},
		{
			"buffer":0,
			"byteLength":2240,
			"byteOffset":15456,
			"target":34962
		},
		{
			"buffer":0,
			"byteLength":2240,
			"byteOffset":17696,
			"target":34962
		},
		{
			"buffer":0,
			"byteLength":3360,
			"byteOffset":19936,
			"target":34962
		},
		{
			"buffer":0,
			"byteLength":1608,
			"byteOffset":23296,
			"target":34963
		}
	],
	"samplers":[
		{
			"magFilter":9729,
			"minFilter":9987
		}
	],
	"buffers":[
		{
			"byteLength":24904,
			"uri":"ground.bin"
		}
	]
}
