{
	"asset":{
		"generator":"Khronos glTF Blender I/O v3.5.30",
		"version":"2.0"
	},
	"extensionsUsed":[
		"KHR_materials_emissive_strength"
	],
	"scene":0,
	"scenes":[
		{
			"name":"Scene",
			"nodes":[
				0
			]
		}
	],
	"nodes":[
		{
			"mesh":0,
			"name":"Cube.037",
			"translation":[
				3.126582145690918,
				4.944788932800293,
				1.693568468093872
			]
		}
	],
	"materials":[
		{
			"doubleSided":true,
			"emissiveFactor":[
				1,
				1,
				1
			],
			"emissiveTexture":{
				"index":0,
				"texCoord":1
			},
			"extensions":{
				"KHR_materials_emissive_strength":{
					"emissiveStrength":2
				}
			},
			"name":"Building_Sign.001",
			"pbrMetallicRoughness":{
				"baseColorTexture":{
					"index":1,
					"texCoord":1
				},
				"metallicFactor":0,
				"roughnessFactor":0.5
			}
		},
		{
			"doubleSided":true,
			"name":"Cable",
			"pbrMetallicRoughness":{
				"baseColorTexture":{
					"index":2,
					"texCoord":1
				},
				"metallicFactor":0,
				"roughnessFactor":0.5
			}
		},
		{
			"doubleSided":true,
			"name":"Building_Sign",
			"pbrMetallicRoughness":{
				"baseColorTexture":{
					"index":3,
					"texCoord":1
				},
				"metallicFactor":0
			}
		}
	],
	"meshes":[
		{
			"name":"Cube.014",
			"primitives":[
				{
					"attributes":{
						"POSITION":0,
						"TEXCOORD_0":1,
						"TEXCOORD_1":2,
						"NORMAL":3
					},
					"indices":4,
					"material":0
				},
				{
					"attributes":{
						"POSITION":5,
						"TEXCOORD_0":6,
						"TEXCOORD_1":7,
						"NORMAL":8
					},
					"indices":9,
					"material":1
				},
				{
					"attributes":{
						"POSITION":10,
						"TEXCOORD_0":11,
						"TEXCOORD_1":12,
						"NORMAL":13
					},
					"indices":14,
					"material":2
				}
			]
		}
	],
	"textures":[
		{
			"sampler":0,
			"source":0
		},
		{
			"sampler":0,
			"source":0
		},
		{
			"sampler":0,
			"source":0
		},
		{
			"sampler":0,
			"source":0
		}
	],
	"images":[
		{
			"mimeType":"image/png",
			"name":"Building_sign",
			"uri":"Building_sign.png"
		}
	],
	"accessors":[
		{
			"bufferView":0,
			"componentType":5126,
			"count":44,
			"max":[
				2.61318302154541,
				0.4974101483821869,
				0.3767537772655487
			],
			"min":[
				-2.61318302154541,
				-0.4974101483821869,
				0.3767537772655487
			],
			"type":"VEC3"
		},
		{
			"bufferView":1,
			"componentType":5126,
			"count":44,
			"type":"VEC2"
		},
		{
			"bufferView":2,
			"componentType":5126,
			"count":44,
			"type":"VEC2"
		},
		{
			"bufferView":3,
			"componentType":5126,
			"count":44,
			"type":"VEC3"
		},
		{
			"bufferView":4,
			"componentType":5123,
			"count":126,
			"type":"SCALAR"
		},
		{
			"bufferView":5,
			"componentType":5126,
			"count":1247,
			"max":[
				-2.5469961166381836,
				0.3801201581954956,
				-0.15947741270065308
			],
			"min":[
				-3.4194674491882324,
				-1.3031498193740845,
				-8.855901718139648
			],
			"type":"VEC3"
		},
		{
			"bufferView":6,
			"componentType":5126,
			"count":1247,
			"type":"VEC2"
		},
		{
			"bufferView":7,
			"componentType":5126,
			"count":1247,
			"type":"VEC2"
		},
		{
			"bufferView":8,
			"componentType":5126,
			"count":1247,
			"type":"VEC3"
		},
		{
			"bufferView":9,
			"componentType":5123,
			"count":4320,
			"type":"SCALAR"
		},
		{
			"bufferView":10,
			"componentType":5126,
			"count":352,
			"max":[
				2.6822094917297363,
				0.5664366483688354,
				0.46198490262031555
			],
			"min":[
				-2.7297167778015137,
				-0.5664366483688354,
				-0.46198490262031555
			],
			"type":"VEC3"
		},
		{
			"bufferView":11,
			"componentType":5126,
			"count":352,
			"type":"VEC2"
		},
		{
			"bufferView":12,
			"componentType":5126,
			"count":352,
			"type":"VEC2"
		},
		{
			"bufferView":13,
			"componentType":5126,
			"count":352,
			"type":"VEC3"
		},
		{
			"bufferView":14,
			"componentType":5123,
			"count":954,
			"type":"SCALAR"
		}
	],
	"bufferViews":[
		{
			"buffer":0,
			"byteLength":528,
			"byteOffset":0,
			"target":34962
		},
		{
			"buffer":0,
			"byteLength":352,
			"byteOffset":528,
			"target":34962
		},
		{
			"buffer":0,
			"byteLength":352,
			"byteOffset":880,
			"target":34962
		},
		{
			"buffer":0,
			"byteLength":528,
			"byteOffset":1232,
			"target":34962
		},
		{
			"buffer":0,
			"byteLength":252,
			"byteOffset":1760,
			"target":34963
		},
		{
			"buffer":0,
			"byteLength":14964,
			"byteOffset":2012,
			"target":34962
		},
		{
			"buffer":0,
			"byteLength":9976,
			"byteOffset":16976,
			"target":34962
		},
		{
			"buffer":0,
			"byteLength":9976,
			"byteOffset":26952,
			"target":34962
		},
		{
			"buffer":0,
			"byteLength":14964,
			"byteOffset":36928,
			"target":34962
		},
		{
			"buffer":0,
			"byteLength":8640,
			"byteOffset":51892,
			"target":34963
		},
		{
			"buffer":0,
			"byteLength":4224,
			"byteOffset":60532,
			"target":34962
		},
		{
			"buffer":0,
			"byteLength":2816,
			"byteOffset":64756,
			"target":34962
		},
		{
			"buffer":0,
			"byteLength":2816,
			"byteOffset":67572,
			"target":34962
		},
		{
			"buffer":0,
			"byteLength":4224,
			"byteOffset":70388,
			"target":34962
		},
		{
			"buffer":0,
			"byteLength":1908,
			"byteOffset":74612,
			"target":34963
		}
	],
	"samplers":[
		{
			"magFilter":9729,
			"minFilter":9987
		}
	],
	"buffers":[
		{
			"byteLength":76520,
			"uri":"bar_sign.bin"
		}
	]
}
