{
	"asset":{
		"generator":"Khronos glTF Blender I/O v3.5.30",
		"version":"2.0"
	},
	"scene":0,
	"scenes":[
		{
			"name":"Scene",
			"nodes":[
				0
			]
		}
	],
	"nodes":[
		{
			"mesh":0,
			"name":"Cube.001",
			"translation":[
				-0.8662667274475098,
				0.37314093112945557,
				0.2928306460380554
			]
		}
	],
	"materials":[
		{
			"doubleSided":true,
			"name":"Vending_White",
			"pbrMetallicRoughness":{
				"baseColorTexture":{
					"index":0
				},
				"metallicFactor":0,
				"roughnessFactor":0.5
			}
		},
		{
			"doubleSided":true,
			"name":"Aluminum ",
			"pbrMetallicRoughness":{
				"baseColorFactor":[
					0.1733548790216446,
					0.1733548790216446,
					0.1733548790216446,
					1
				],
				"metallicFactor":0,
				"roughnessFactor":0.18275010585784912
			}
		}
	],
	"meshes":[
		{
			"name":"Cube.037",
			"primitives":[
				{
					"attributes":{
						"POSITION":0,
						"TEXCOORD_0":1,
						"NORMAL":2
					},
					"indices":3,
					"material":0
				},
				{
					"attributes":{
						"POSITION":4,
						"TEXCOORD_0":5,
						"NORMAL":6
					},
					"indices":7,
					"material":1
				}
			]
		}
	],
	"textures":[
		{
			"sampler":0,
			"source":0
		}
	],
	"images":[
		{
			"mimeType":"image/png",
			"name":"Vending_White",
			"uri":"Vending_White.png"
		}
	],
	"accessors":[
		{
			"bufferView":0,
			"componentType":5126,
			"count":284,
			"max":[
				0.6448898911476135,
				2,
				0.24570289254188538
			],
			"min":[
				-0.6448898911476135,
				0,
				-0.23499763011932373
			],
			"type":"VEC3"
		},
		{
			"bufferView":1,
			"componentType":5126,
			"count":284,
			"type":"VEC2"
		},
		{
			"bufferView":2,
			"componentType":5126,
			"count":284,
			"type":"VEC3"
		},
		{
			"bufferView":3,
			"componentType":5123,
			"count":690,
			"type":"SCALAR"
		},
		{
			"bufferView":4,
			"componentType":5126,
			"count":908,
			"max":[
				0.6550526022911072,
				-0.004021644592285156,
				0.23897168040275574
			],
			"min":[
				-0.6550526022911072,
				-0.10339684784412384,
				-0.23958945274353027
			],
			"type":"VEC3"
		},
		{
			"bufferView":5,
			"componentType":5126,
			"count":908,
			"type":"VEC2"
		},
		{
			"bufferView":6,
			"componentType":5126,
			"count":908,
			"type":"VEC3"
		},
		{
			"bufferView":7,
			"componentType":5123,
			"count":2124,
			"type":"SCALAR"
		}
	],
	"bufferViews":[
		{
			"buffer":0,
			"byteLength":3408,
			"byteOffset":0,
			"target":34962
		},
		{
			"buffer":0,
			"byteLength":2272,
			"byteOffset":3408,
			"target":34962
		},
		{
			"buffer":0,
			"byteLength":3408,
			"byteOffset":5680,
			"target":34962
		},
		{
			"buffer":0,
			"byteLength":1380,
			"byteOffset":9088,
			"target":34963
		},
		{
			"buffer":0,
			"byteLength":10896,
			"byteOffset":10468,
			"target":34962
		},
		{
			"buffer":0,
			"byteLength":7264,
			"byteOffset":21364,
			"target":34962
		},
		{
			"buffer":0,
			"byteLength":10896,
			"byteOffset":28628,
			"target":34962
		},
		{
			"buffer":0,
			"byteLength":4248,
			"byteOffset":39524,
			"target":34963
		}
	],
	"samplers":[
		{
			"magFilter":9729,
			"minFilter":9987
		}
	],
	"buffers":[
		{
			"byteLength":43772,
			"uri":"street_lights.bin"
		}
	]
}
