{
	"asset":{
		"generator":"Khronos glTF Blender I/O v3.5.30",
		"version":"2.0"
	},
	"extensionsUsed":[
		"KHR_materials_emissive_strength"
	],
	"scene":0,
	"scenes":[
		{
			"name":"Scene",
			"nodes":[
				0
			]
		}
	],
	"nodes":[
		{
			"mesh":0,
			"name":"Cube.001",
			"translation":[
				-0.8662667274475098,
				0.37314093112945557,
				0.6903579235076904
			]
		}
	],
	"materials":[
		{
			"doubleSided":true,
			"name":"Vending_White",
			"pbrMetallicRoughness":{
				"baseColorTexture":{
					"index":0
				},
				"metallicFactor":0,
				"roughnessFactor":0.5
			}
		},
		{
			"doubleSided":true,
			"name":"Aluminum ",
			"pbrMetallicRoughness":{
				"baseColorFactor":[
					0.1733548790216446,
					0.1733548790216446,
					0.1733548790216446,
					1
				],
				"metallicFactor":0,
				"roughnessFactor":0.18275010585784912
			}
		},
		{
			"doubleSided":true,
			"emissiveFactor":[
				1,
				1,
				1
			],
			"emissiveTexture":{
				"index":1
			},
			"extensions":{
				"KHR_materials_emissive_strength":{
					"emissiveStrength":2
				}
			},
			"name":"Emission",
			"pbrMetallicRoughness":{
				"baseColorTexture":{
					"index":2
				},
				"metallicFactor":0,
				"roughnessFactor":0.5
			}
		}
	],
	"meshes":[
		{
			"name":"Cube.037",
			"primitives":[
				{
					"attributes":{
						"POSITION":0,
						"TEXCOORD_0":1,
						"NORMAL":2
					},
					"indices":3,
					"material":0
				},
				{
					"attributes":{
						"POSITION":4,
						"TEXCOORD_0":5,
						"NORMAL":6
					},
					"indices":7,
					"material":1
				},
				{
					"attributes":{
						"POSITION":8,
						"TEXCOORD_0":9,
						"NORMAL":10
					},
					"indices":11,
					"material":2
				}
			]
		}
	],
	"textures":[
		{
			"sampler":0,
			"source":0
		},
		{
			"sampler":0,
			"source":0
		},
		{
			"sampler":0,
			"source":0
		}
	],
	"images":[
		{
			"mimeType":"image/png",
			"name":"Vending_White",
			"uri":"Vending_White.png"
		}
	],
	"accessors":[
		{
			"bufferView":0,
			"componentType":5126,
			"count":272,
			"max":[
				0.6448898911476135,
				2,
				0.24570289254188538
			],
			"min":[
				-0.6448898911476135,
				0,
				-0.23499763011932373
			],
			"type":"VEC3"
		},
		{
			"bufferView":1,
			"componentType":5126,
			"count":272,
			"type":"VEC2"
		},
		{
			"bufferView":2,
			"componentType":5126,
			"count":272,
			"type":"VEC3"
		},
		{
			"bufferView":3,
			"componentType":5123,
			"count":660,
			"type":"SCALAR"
		},
		{
			"bufferView":4,
			"componentType":5126,
			"count":908,
			"max":[
				0.6550526022911072,
				-0.004021644592285156,
				0.23897168040275574
			],
			"min":[
				-0.6550526022911072,
				-0.10339684784412384,
				-0.23958945274353027
			],
			"type":"VEC3"
		},
		{
			"bufferView":5,
			"componentType":5126,
			"count":908,
			"type":"VEC2"
		},
		{
			"bufferView":6,
			"componentType":5126,
			"count":908,
			"type":"VEC3"
		},
		{
			"bufferView":7,
			"componentType":5123,
			"count":2124,
			"type":"SCALAR"
		},
		{
			"bufferView":8,
			"componentType":5126,
			"count":12,
			"max":[
				0.61037677526474,
				1.88766348361969,
				0.10991421341896057
			],
			"min":[
				-0.61037677526474,
				0.8956968784332275,
				0.10991421341896057
			],
			"type":"VEC3"
		},
		{
			"bufferView":9,
			"componentType":5126,
			"count":12,
			"type":"VEC2"
		},
		{
			"bufferView":10,
			"componentType":5126,
			"count":12,
			"type":"VEC3"
		},
		{
			"bufferView":11,
			"componentType":5123,
			"count":30,
			"type":"SCALAR"
		}
	],
	"bufferViews":[
		{
			"buffer":0,
			"byteLength":3264,
			"byteOffset":0,
			"target":34962
		},
		{
			"buffer":0,
			"byteLength":2176,
			"byteOffset":3264,
			"target":34962
		},
		{
			"buffer":0,
			"byteLength":3264,
			"byteOffset":5440,
			"target":34962
		},
		{
			"buffer":0,
			"byteLength":1320,
			"byteOffset":8704,
			"target":34963
		},
		{
			"buffer":0,
			"byteLength":10896,
			"byteOffset":10024,
			"target":34962
		},
		{
			"buffer":0,
			"byteLength":7264,
			"byteOffset":20920,
			"target":34962
		},
		{
			"buffer":0,
			"byteLength":10896,
			"byteOffset":28184,
			"target":34962
		},
		{
			"buffer":0,
			"byteLength":4248,
			"byteOffset":39080,
			"target":34963
		},
		{
			"buffer":0,
			"byteLength":144,
			"byteOffset":43328,
			"target":34962
		},
		{
			"buffer":0,
			"byteLength":96,
			"byteOffset":43472,
			"target":34962
		},
		{
			"buffer":0,
			"byteLength":144,
			"byteOffset":43568,
			"target":34962
		},
		{
			"buffer":0,
			"byteLength":60,
			"byteOffset":43712,
			"target":34963
		}
	],
	"samplers":[
		{
			"magFilter":9729,
			"minFilter":9987
		}
	],
	"buffers":[
		{
			"byteLength":43772,
			"uri":"vending1.bin"
		}
	]
}
