{
	"asset":{
		"generator":"Khronos glTF Blender I/O v3.5.30",
		"version":"2.0"
	},
	"extensionsUsed":[
		"KHR_materials_specular",
		"KHR_materials_ior",
		"KHR_materials_emissive_strength"
	],
	"scene":0,
	"scenes":[
		{
			"name":"Scene",
			"nodes":[
				0
			]
		}
	],
	"nodes":[
		{
			"mesh":0,
			"name":"Main Builidng ",
			"translation":[
				2.271569013595581,
				0.3569624423980713,
				-0.30246293544769287
			]
		}
	],
	"materials":[
		{
			"doubleSided":true,
			"name":"Concrete",
			"pbrMetallicRoughness":{
				"baseColorTexture":{
					"index":0,
					"texCoord":1
				},
				"metallicFactor":0,
				"roughnessFactor":0.8500000238418579
			}
		},
		{
			"doubleSided":true,
			"name":"Windowsil",
			"pbrMetallicRoughness":{
				"baseColorTexture":{
					"index":1,
					"texCoord":1
				},
				"metallicFactor":0.7823834419250488,
				"roughnessFactor":0.5
			}
		},
		{
			"doubleSided":true,
			"extensions":{
				"KHR_materials_specular":{
					"specularColorFactor":[
						2.371357614441398,
						2.371357614441398,
						2.371357614441398
					]
				},
				"KHR_materials_ior":{
					"ior":1.4500000476837158
				}
			},
			"name":"Glass",
			"pbrMetallicRoughness":{
				"baseColorTexture":{
					"index":2,
					"texCoord":1
				},
				"metallicFactor":0,
				"roughnessFactor":0
			}
		},
		{
			"doubleSided":true,
			"extensions":{
				"KHR_materials_specular":{
					"specularColorFactor":[
						0,
						0,
						0
					]
				},
				"KHR_materials_ior":{
					"ior":1.4500000476837158
				}
			},
			"name":"Top",
			"pbrMetallicRoughness":{
				"baseColorTexture":{
					"index":3,
					"texCoord":1
				},
				"metallicFactor":0
			}
		},
		{
			"doubleSided":true,
			"name":"Wood",
			"pbrMetallicRoughness":{
				"baseColorTexture":{
					"index":4,
					"texCoord":1
				},
				"metallicFactor":0,
				"roughnessFactor":0.5
			}
		},
		{
			"doubleSided":true,
			"emissiveFactor":[
				1,
				1,
				1
			],
			"emissiveTexture":{
				"index":5,
				"texCoord":1
			},
			"extensions":{
				"KHR_materials_emissive_strength":{
					"emissiveStrength":1
				}
			},
			"name":"Front_Features",
			"pbrMetallicRoughness":{
				"baseColorTexture":{
					"index":6,
					"texCoord":1
				},
				"metallicFactor":0,
				"roughnessFactor":0.5
			}
		},
		{
			"doubleSided":true,
			"name":"Brick",
			"pbrMetallicRoughness":{
				"baseColorTexture":{
					"index":7,
					"texCoord":1
				},
				"metallicFactor":0,
				"roughnessFactor":0.5
			}
		}
	],
	"meshes":[
		{
			"name":"Cube.043",
			"primitives":[
				{
					"attributes":{
						"POSITION":0,
						"TEXCOORD_0":1,
						"TEXCOORD_1":2,
						"NORMAL":3
					},
					"indices":4,
					"material":0
				},
				{
					"attributes":{
						"POSITION":5,
						"TEXCOORD_0":6,
						"TEXCOORD_1":7,
						"NORMAL":8
					},
					"indices":9,
					"material":1
				},
				{
					"attributes":{
						"POSITION":10,
						"TEXCOORD_0":11,
						"TEXCOORD_1":12,
						"NORMAL":13
					},
					"indices":14,
					"material":2
				},
				{
					"attributes":{
						"POSITION":15,
						"TEXCOORD_0":16,
						"TEXCOORD_1":17,
						"NORMAL":18
					},
					"indices":19,
					"material":3
				},
				{
					"attributes":{
						"POSITION":20,
						"TEXCOORD_0":21,
						"TEXCOORD_1":22,
						"NORMAL":23
					},
					"indices":24,
					"material":4
				},
				{
					"attributes":{
						"POSITION":25,
						"TEXCOORD_0":26,
						"TEXCOORD_1":27,
						"NORMAL":28
					},
					"indices":29,
					"material":5
				},
				{
					"attributes":{
						"POSITION":30,
						"TEXCOORD_0":31,
						"TEXCOORD_1":32,
						"NORMAL":33
					},
					"indices":34,
					"material":6
				}
			]
		}
	],
	"textures":[
		{
			"sampler":0,
			"source":0
		},
		{
			"sampler":0,
			"source":0
		},
		{
			"sampler":0,
			"source":0
		},
		{
			"sampler":0,
			"source":0
		},
		{
			"sampler":0,
			"source":0
		},
		{
			"sampler":0,
			"source":0
		},
		{
			"sampler":0,
			"source":0
		},
		{
			"sampler":0,
			"source":0
		}
	],
	"images":[
		{
			"mimeType":"image/png",
			"name":"aaa bro comoin",
			"uri":"aaa%20bro%20comoin.png"
		}
	],
	"accessors":[
		{
			"bufferView":0,
			"componentType":5126,
			"count":542,
			"max":[
				3.871962785720825,
				10.979445457458496,
				1.6816399097442627
			],
			"min":[
				-2.272634506225586,
				0,
				-6.630417823791504
			],
			"type":"VEC3"
		},
		{
			"bufferView":1,
			"componentType":5126,
			"count":542,
			"type":"VEC2"
		},
		{
			"bufferView":2,
			"componentType":5126,
			"count":542,
			"type":"VEC2"
		},
		{
			"bufferView":3,
			"componentType":5126,
			"count":542,
			"type":"VEC3"
		},
		{
			"bufferView":4,
			"componentType":5123,
			"count":1314,
			"type":"SCALAR"
		},
		{
			"bufferView":5,
			"componentType":5126,
			"count":136,
			"max":[
				2.6991751194000244,
				8.81546401977539,
				1.5062081813812256
			],
			"min":[
				-1.1451845169067383,
				6.908718109130859,
				1.4314075708389282
			],
			"type":"VEC3"
		},
		{
			"bufferView":6,
			"componentType":5126,
			"count":136,
			"type":"VEC2"
		},
		{
			"bufferView":7,
			"componentType":5126,
			"count":136,
			"type":"VEC2"
		},
		{
			"bufferView":8,
			"componentType":5126,
			"count":136,
			"type":"VEC3"
		},
		{
			"bufferView":9,
			"componentType":5123,
			"count":348,
			"type":"SCALAR"
		},
		{
			"bufferView":10,
			"componentType":5126,
			"count":18,
			"max":[
				2.6135354042053223,
				8.741766929626465,
				1.4314075708389282
			],
			"min":[
				-1.0595448017120361,
				6.982415199279785,
				1.4314075708389282
			],
			"type":"VEC3"
		},
		{
			"bufferView":11,
			"componentType":5126,
			"count":18,
			"type":"VEC2"
		},
		{
			"bufferView":12,
			"componentType":5126,
			"count":18,
			"type":"VEC2"
		},
		{
			"bufferView":13,
			"componentType":5126,
			"count":18,
			"type":"VEC3"
		},
		{
			"bufferView":14,
			"componentType":5123,
			"count":42,
			"type":"SCALAR"
		},
		{
			"bufferView":15,
			"componentType":5126,
			"count":106,
			"max":[
				3.9617819786071777,
				11.113502502441406,
				1.6247010231018066
			],
			"min":[
				-2.3624536991119385,
				10.979445457458496,
				-6.716314792633057
			],
			"type":"VEC3"
		},
		{
			"bufferView":16,
			"componentType":5126,
			"count":106,
			"type":"VEC2"
		},
		{
			"bufferView":17,
			"componentType":5126,
			"count":106,
			"type":"VEC2"
		},
		{
			"bufferView":18,
			"componentType":5126,
			"count":106,
			"type":"VEC3"
		},
		{
			"bufferView":19,
			"componentType":5123,
			"count":330,
			"type":"SCALAR"
		},
		{
			"bufferView":20,
			"componentType":5126,
			"count":140,
			"max":[
				3.4111180305480957,
				3.919057846069336,
				1.6816399097442627
			],
			"min":[
				-1.8117897510528564,
				0,
				1.4500832557678223
			],
			"type":"VEC3"
		},
		{
			"bufferView":21,
			"componentType":5126,
			"count":140,
			"type":"VEC2"
		},
		{
			"bufferView":22,
			"componentType":5126,
			"count":140,
			"type":"VEC2"
		},
		{
			"bufferView":23,
			"componentType":5126,
			"count":140,
			"type":"VEC3"
		},
		{
			"bufferView":24,
			"componentType":5123,
			"count":306,
			"type":"SCALAR"
		},
		{
			"bufferView":25,
			"componentType":5126,
			"count":68,
			"max":[
				3.116760492324829,
				2.629974365234375,
				1.6052727699279785
			],
			"min":[
				-1.3004789352416992,
				0,
				1.3210352659225464
			],
			"type":"VEC3"
		},
		{
			"bufferView":26,
			"componentType":5126,
			"count":68,
			"type":"VEC2"
		},
		{
			"bufferView":27,
			"componentType":5126,
			"count":68,
			"type":"VEC2"
		},
		{
			"bufferView":28,
			"componentType":5126,
			"count":68,
			"type":"VEC3"
		},
		{
			"bufferView":29,
			"componentType":5123,
			"count":162,
			"type":"SCALAR"
		},
		{
			"bufferView":30,
			"componentType":5126,
			"count":50,
			"max":[
				3.149972677230835,
				2.577986001968384,
				1.6368143558502197
			],
			"min":[
				-1.5506443977355957,
				0,
				1.4500832557678223
			],
			"type":"VEC3"
		},
		{
			"bufferView":31,
			"componentType":5126,
			"count":50,
			"type":"VEC2"
		},
		{
			"bufferView":32,
			"componentType":5126,
			"count":50,
			"type":"VEC2"
		},
		{
			"bufferView":33,
			"componentType":5126,
			"count":50,
			"type":"VEC3"
		},
		{
			"bufferView":34,
			"componentType":5123,
			"count":90,
			"type":"SCALAR"
		}
	],
	"bufferViews":[
		{
			"buffer":0,
			"byteLength":6504,
			"byteOffset":0,
			"target":34962
		},
		{
			"buffer":0,
			"byteLength":4336,
			"byteOffset":6504,
			"target":34962
		},
		{
			"buffer":0,
			"byteLength":4336,
			"byteOffset":10840,
			"target":34962
		},
		{
			"buffer":0,
			"byteLength":6504,
			"byteOffset":15176,
			"target":34962
		},
		{
			"buffer":0,
			"byteLength":2628,
			"byteOffset":21680,
			"target":34963
		},
		{
			"buffer":0,
			"byteLength":1632,
			"byteOffset":24308,
			"target":34962
		},
		{
			"buffer":0,
			"byteLength":1088,
			"byteOffset":25940,
			"target":34962
		},
		{
			"buffer":0,
			"byteLength":1088,
			"byteOffset":27028,
			"target":34962
		},
		{
			"buffer":0,
			"byteLength":1632,
			"byteOffset":28116,
			"target":34962
		},
		{
			"buffer":0,
			"byteLength":696,
			"byteOffset":29748,
			"target":34963
		},
		{
			"buffer":0,
			"byteLength":216,
			"byteOffset":30444,
			"target":34962
		},
		{
			"buffer":0,
			"byteLength":144,
			"byteOffset":30660,
			"target":34962
		},
		{
			"buffer":0,
			"byteLength":144,
			"byteOffset":30804,
			"target":34962
		},
		{
			"buffer":0,
			"byteLength":216,
			"byteOffset":30948,
			"target":34962
		},
		{
			"buffer":0,
			"byteLength":84,
			"byteOffset":31164,
			"target":34963
		},
		{
			"buffer":0,
			"byteLength":1272,
			"byteOffset":31248,
			"target":34962
		},
		{
			"buffer":0,
			"byteLength":848,
			"byteOffset":32520,
			"target":34962
		},
		{
			"buffer":0,
			"byteLength":848,
			"byteOffset":33368,
			"target":34962
		},
		{
			"buffer":0,
			"byteLength":1272,
			"byteOffset":34216,
			"target":34962
		},
		{
			"buffer":0,
			"byteLength":660,
			"byteOffset":35488,
			"target":34963
		},
		{
			"buffer":0,
			"byteLength":1680,
			"byteOffset":36148,
			"target":34962
		},
		{
			"buffer":0,
			"byteLength":1120,
			"byteOffset":37828,
			"target":34962
		},
		{
			"buffer":0,
			"byteLength":1120,
			"byteOffset":38948,
			"target":34962
		},
		{
			"buffer":0,
			"byteLength":1680,
			"byteOffset":40068,
			"target":34962
		},
		{
			"buffer":0,
			"byteLength":612,
			"byteOffset":41748,
			"target":34963
		},
		{
			"buffer":0,
			"byteLength":816,
			"byteOffset":42360,
			"target":34962
		},
		{
			"buffer":0,
			"byteLength":544,
			"byteOffset":43176,
			"target":34962
		},
		{
			"buffer":0,
			"byteLength":544,
			"byteOffset":43720,
			"target":34962
		},
		{
			"buffer":0,
			"byteLength":816,
			"byteOffset":44264,
			"target":34962
		},
		{
			"buffer":0,
			"byteLength":324,
			"byteOffset":45080,
			"target":34963
		},
		{
			"buffer":0,
			"byteLength":600,
			"byteOffset":45404,
			"target":34962
		},
		{
			"buffer":0,
			"byteLength":400,
			"byteOffset":46004,
			"target":34962
		},
		{
			"buffer":0,
			"byteLength":400,
			"byteOffset":46404,
			"target":34962
		},
		{
			"buffer":0,
			"byteLength":600,
			"byteOffset":46804,
			"target":34962
		},
		{
			"buffer":0,
			"byteLength":180,
			"byteOffset":47404,
			"target":34963
		}
	],
	"samplers":[
		{
			"magFilter":9729,
			"minFilter":9987
		}
	],
	"buffers":[
		{
			"byteLength":47584,
			"uri":"main_building.bin"
		}
	]
}
